<mxfile host="Electron" agent="Mozilla/5.0 (Windows NT 10.0; Win64; x64) AppleWebKit/537.36 (KHTML, like Gecko) draw.io/28.1.2 Chrome/138.0.7204.243 Electron/37.4.0 Safari/537.36" version="28.1.2">
  <diagram name="Page-1" id="u_nlljGo3evVKFmUTIkn">
    <mxGraphModel dx="2910" dy="1703" grid="0" gridSize="10" guides="1" tooltips="1" connect="1" arrows="1" fold="1" page="1" pageScale="1" pageWidth="1600" pageHeight="900" math="0" shadow="0">
      <root>
        <mxCell id="0" />
        <mxCell id="1" parent="0" />
        <mxCell id="PmQbQZa9qMLqMzXBqfcJ-77" style="edgeStyle=orthogonalEdgeStyle;rounded=0;orthogonalLoop=1;jettySize=auto;html=1;exitX=0;exitY=0;exitDx=0;exitDy=0;entryX=1;entryY=1;entryDx=0;entryDy=0;endArrow=none;endFill=0;" parent="1" source="fExjuZPJxnfh54GCOMQb-1" target="fExjuZPJxnfh54GCOMQb-24" edge="1">
          <mxGeometry relative="1" as="geometry" />
        </mxCell>
        <mxCell id="jXS0DLB_lHR7ojzFCZE1-12" style="edgeStyle=orthogonalEdgeStyle;rounded=0;orthogonalLoop=1;jettySize=auto;html=1;exitX=1;exitY=0;exitDx=0;exitDy=0;entryX=0;entryY=0.5;entryDx=0;entryDy=0;endArrow=none;endFill=0;shape=link;" parent="1" source="fExjuZPJxnfh54GCOMQb-1" target="jXS0DLB_lHR7ojzFCZE1-9" edge="1">
          <mxGeometry relative="1" as="geometry">
            <Array as="points">
              <mxPoint x="588" y="174" />
              <mxPoint x="680" y="174" />
            </Array>
          </mxGeometry>
        </mxCell>
        <mxCell id="jXS0DLB_lHR7ojzFCZE1-16" style="edgeStyle=orthogonalEdgeStyle;rounded=0;orthogonalLoop=1;jettySize=auto;html=1;exitX=0.5;exitY=1;exitDx=0;exitDy=0;entryX=0.5;entryY=0;entryDx=0;entryDy=0;endArrow=none;endFill=0;" parent="1" source="fExjuZPJxnfh54GCOMQb-1" target="jXS0DLB_lHR7ojzFCZE1-10" edge="1">
          <mxGeometry relative="1" as="geometry" />
        </mxCell>
        <mxCell id="idugPT6sOUHTakiWyFXu-10" style="edgeStyle=orthogonalEdgeStyle;rounded=0;orthogonalLoop=1;jettySize=auto;html=1;exitX=0;exitY=1;exitDx=0;exitDy=0;entryX=1;entryY=0;entryDx=0;entryDy=0;endArrow=none;endFill=0;" parent="1" source="fExjuZPJxnfh54GCOMQb-1" target="idugPT6sOUHTakiWyFXu-9" edge="1">
          <mxGeometry relative="1" as="geometry" />
        </mxCell>
        <mxCell id="idugPT6sOUHTakiWyFXu-17" style="edgeStyle=orthogonalEdgeStyle;rounded=0;orthogonalLoop=1;jettySize=auto;html=1;exitX=0;exitY=0.75;exitDx=0;exitDy=0;endArrow=none;endFill=0;shape=link;" parent="1" source="fExjuZPJxnfh54GCOMQb-1" target="idugPT6sOUHTakiWyFXu-16" edge="1">
          <mxGeometry relative="1" as="geometry">
            <Array as="points">
              <mxPoint x="488" y="311" />
              <mxPoint x="60" y="311" />
              <mxPoint x="60" y="683" />
            </Array>
          </mxGeometry>
        </mxCell>
        <mxCell id="fExjuZPJxnfh54GCOMQb-1" value="&lt;font style=&quot;font-size: 16px;&quot;&gt;Instructor&lt;/font&gt;" style="html=1;dashed=0;whiteSpace=wrap;" parent="1" vertex="1">
          <mxGeometry x="488" y="243" width="100" height="50" as="geometry" />
        </mxCell>
        <mxCell id="p9Ln73T7l0obJPTR8ibc-7" style="edgeStyle=orthogonalEdgeStyle;rounded=0;orthogonalLoop=1;jettySize=auto;html=1;exitX=1;exitY=0;exitDx=0;exitDy=0;entryX=0;entryY=1;entryDx=0;entryDy=0;endArrow=none;endFill=0;shape=link;" parent="1" source="fExjuZPJxnfh54GCOMQb-2" target="p9Ln73T7l0obJPTR8ibc-5" edge="1">
          <mxGeometry relative="1" as="geometry" />
        </mxCell>
        <mxCell id="jXS0DLB_lHR7ojzFCZE1-34" style="edgeStyle=orthogonalEdgeStyle;rounded=0;orthogonalLoop=1;jettySize=auto;html=1;exitX=1;exitY=1;exitDx=0;exitDy=0;endArrow=none;endFill=0;" parent="1" source="fExjuZPJxnfh54GCOMQb-2" target="fExjuZPJxnfh54GCOMQb-25" edge="1">
          <mxGeometry relative="1" as="geometry" />
        </mxCell>
        <mxCell id="jXS0DLB_lHR7ojzFCZE1-36" style="edgeStyle=orthogonalEdgeStyle;rounded=0;orthogonalLoop=1;jettySize=auto;html=1;exitX=0.5;exitY=1;exitDx=0;exitDy=0;entryX=0.5;entryY=0;entryDx=0;entryDy=0;endArrow=none;endFill=0;" parent="1" source="fExjuZPJxnfh54GCOMQb-2" target="jXS0DLB_lHR7ojzFCZE1-35" edge="1">
          <mxGeometry relative="1" as="geometry" />
        </mxCell>
        <mxCell id="jXS0DLB_lHR7ojzFCZE1-38" style="edgeStyle=orthogonalEdgeStyle;rounded=0;orthogonalLoop=1;jettySize=auto;html=1;exitX=0.25;exitY=1;exitDx=0;exitDy=0;endArrow=none;endFill=0;" parent="1" source="fExjuZPJxnfh54GCOMQb-2" target="jXS0DLB_lHR7ojzFCZE1-37" edge="1">
          <mxGeometry relative="1" as="geometry" />
        </mxCell>
        <mxCell id="idugPT6sOUHTakiWyFXu-8" style="edgeStyle=orthogonalEdgeStyle;rounded=0;orthogonalLoop=1;jettySize=auto;html=1;exitX=0.75;exitY=1;exitDx=0;exitDy=0;entryX=0;entryY=0;entryDx=0;entryDy=0;endArrow=none;endFill=0;" parent="1" source="fExjuZPJxnfh54GCOMQb-2" target="idugPT6sOUHTakiWyFXu-7" edge="1">
          <mxGeometry relative="1" as="geometry" />
        </mxCell>
        <mxCell id="OwGAfwipVpSHfUCCJN2n-7" style="edgeStyle=orthogonalEdgeStyle;rounded=0;orthogonalLoop=1;jettySize=auto;html=1;exitX=0.5;exitY=1;exitDx=0;exitDy=0;entryX=0.5;entryY=0;entryDx=0;entryDy=0;endArrow=none;endFill=0;" edge="1" parent="1" source="fExjuZPJxnfh54GCOMQb-2" target="OwGAfwipVpSHfUCCJN2n-6">
          <mxGeometry relative="1" as="geometry" />
        </mxCell>
        <mxCell id="fExjuZPJxnfh54GCOMQb-2" value="&lt;font style=&quot;font-size: 16px;&quot;&gt;Student&lt;/font&gt;" style="html=1;dashed=0;whiteSpace=wrap;" parent="1" vertex="1">
          <mxGeometry x="834" y="461" width="100" height="50" as="geometry" />
        </mxCell>
        <mxCell id="idugPT6sOUHTakiWyFXu-13" style="edgeStyle=orthogonalEdgeStyle;rounded=0;orthogonalLoop=1;jettySize=auto;html=1;exitX=1;exitY=0.5;exitDx=0;exitDy=0;endArrow=none;endFill=0;shape=link;" parent="1" source="fExjuZPJxnfh54GCOMQb-4" target="idugPT6sOUHTakiWyFXu-11" edge="1">
          <mxGeometry relative="1" as="geometry" />
        </mxCell>
        <mxCell id="idugPT6sOUHTakiWyFXu-19" style="edgeStyle=orthogonalEdgeStyle;rounded=0;orthogonalLoop=1;jettySize=auto;html=1;exitX=0.25;exitY=1;exitDx=0;exitDy=0;endArrow=none;endFill=0;shape=link;" parent="1" source="fExjuZPJxnfh54GCOMQb-4" target="idugPT6sOUHTakiWyFXu-16" edge="1">
          <mxGeometry relative="1" as="geometry">
            <Array as="points">
              <mxPoint x="243" y="562" />
              <mxPoint x="116" y="562" />
            </Array>
          </mxGeometry>
        </mxCell>
        <mxCell id="idugPT6sOUHTakiWyFXu-26" style="edgeStyle=orthogonalEdgeStyle;rounded=0;orthogonalLoop=1;jettySize=auto;html=1;exitX=0.5;exitY=1;exitDx=0;exitDy=0;entryX=0.5;entryY=1;entryDx=0;entryDy=0;endArrow=none;endFill=0;shape=link;" parent="1" source="fExjuZPJxnfh54GCOMQb-4" target="idugPT6sOUHTakiWyFXu-22" edge="1">
          <mxGeometry relative="1" as="geometry" />
        </mxCell>
        <mxCell id="idugPT6sOUHTakiWyFXu-33" style="edgeStyle=orthogonalEdgeStyle;rounded=0;orthogonalLoop=1;jettySize=auto;html=1;exitX=0.75;exitY=1;exitDx=0;exitDy=0;" parent="1" source="idugPT6sOUHTakiWyFXu-34" edge="1">
          <mxGeometry relative="1" as="geometry">
            <mxPoint x="354.44447835286473" y="620.3333333333335" as="targetPoint" />
          </mxGeometry>
        </mxCell>
        <mxCell id="idugPT6sOUHTakiWyFXu-41" style="edgeStyle=orthogonalEdgeStyle;rounded=0;orthogonalLoop=1;jettySize=auto;html=1;exitX=0;exitY=0.5;exitDx=0;exitDy=0;entryX=1;entryY=0.5;entryDx=0;entryDy=0;endArrow=none;endFill=0;shape=link;" parent="1" source="fExjuZPJxnfh54GCOMQb-4" target="idugPT6sOUHTakiWyFXu-40" edge="1">
          <mxGeometry relative="1" as="geometry" />
        </mxCell>
        <mxCell id="idugPT6sOUHTakiWyFXu-72" style="edgeStyle=orthogonalEdgeStyle;rounded=0;orthogonalLoop=1;jettySize=auto;html=1;exitX=0.5;exitY=1;exitDx=0;exitDy=0;entryX=0.5;entryY=1;entryDx=0;entryDy=0;endArrow=none;endFill=0;" parent="1" source="fExjuZPJxnfh54GCOMQb-4" target="idugPT6sOUHTakiWyFXu-69" edge="1">
          <mxGeometry relative="1" as="geometry">
            <Array as="points">
              <mxPoint x="256" y="480" />
              <mxPoint x="256" y="1070" />
              <mxPoint x="449" y="1070" />
            </Array>
          </mxGeometry>
        </mxCell>
        <mxCell id="fExjuZPJxnfh54GCOMQb-4" value="&lt;font style=&quot;font-size: 15px;&quot;&gt;Exam&lt;/font&gt;" style="html=1;dashed=0;whiteSpace=wrap;strokeColor=default;" parent="1" vertex="1">
          <mxGeometry x="218" y="430" width="100" height="50" as="geometry" />
        </mxCell>
        <mxCell id="PmQbQZa9qMLqMzXBqfcJ-46" style="edgeStyle=orthogonalEdgeStyle;rounded=0;orthogonalLoop=1;jettySize=auto;html=1;exitX=0.5;exitY=1;exitDx=0;exitDy=0;entryX=1;entryY=0.5;entryDx=0;entryDy=0;endArrow=none;endFill=0;shape=link;" parent="1" source="fExjuZPJxnfh54GCOMQb-8" target="fExjuZPJxnfh54GCOMQb-106" edge="1">
          <mxGeometry relative="1" as="geometry" />
        </mxCell>
        <mxCell id="fExjuZPJxnfh54GCOMQb-8" value="&lt;font style=&quot;font-size: 15px;&quot;&gt;Track&lt;/font&gt;" style="html=1;dashed=0;whiteSpace=wrap;" parent="1" vertex="1">
          <mxGeometry x="1141" y="258.5" width="100" height="50" as="geometry" />
        </mxCell>
        <mxCell id="PmQbQZa9qMLqMzXBqfcJ-41" style="edgeStyle=orthogonalEdgeStyle;rounded=0;orthogonalLoop=1;jettySize=auto;html=1;exitX=0.5;exitY=1;exitDx=0;exitDy=0;endArrow=none;endFill=0;shape=link;" parent="1" source="fExjuZPJxnfh54GCOMQb-9" target="PmQbQZa9qMLqMzXBqfcJ-39" edge="1">
          <mxGeometry relative="1" as="geometry" />
        </mxCell>
        <mxCell id="jXS0DLB_lHR7ojzFCZE1-47" style="edgeStyle=orthogonalEdgeStyle;rounded=0;orthogonalLoop=1;jettySize=auto;html=1;exitX=0.25;exitY=1;exitDx=0;exitDy=0;entryX=0.5;entryY=1;entryDx=0;entryDy=0;endArrow=none;endFill=0;shape=link;" parent="1" source="fExjuZPJxnfh54GCOMQb-9" target="jXS0DLB_lHR7ojzFCZE1-45" edge="1">
          <mxGeometry relative="1" as="geometry" />
        </mxCell>
        <mxCell id="fExjuZPJxnfh54GCOMQb-9" value="&lt;font style=&quot;font-size: 15px;&quot;&gt;Course&lt;/font&gt;" style="html=1;dashed=0;whiteSpace=wrap;" parent="1" vertex="1">
          <mxGeometry x="811" y="231" width="100" height="50" as="geometry" />
        </mxCell>
        <mxCell id="fExjuZPJxnfh54GCOMQb-10" style="edgeStyle=orthogonalEdgeStyle;rounded=0;orthogonalLoop=1;jettySize=auto;html=1;exitX=0.5;exitY=1;exitDx=0;exitDy=0;" parent="1" source="fExjuZPJxnfh54GCOMQb-8" target="fExjuZPJxnfh54GCOMQb-8" edge="1">
          <mxGeometry relative="1" as="geometry" />
        </mxCell>
        <mxCell id="fExjuZPJxnfh54GCOMQb-15" style="edgeStyle=orthogonalEdgeStyle;rounded=0;orthogonalLoop=1;jettySize=auto;html=1;exitX=0.5;exitY=1;exitDx=0;exitDy=0;endArrow=none;endFill=0;" parent="1" source="fExjuZPJxnfh54GCOMQb-11" edge="1">
          <mxGeometry relative="1" as="geometry">
            <mxPoint x="518" y="242" as="targetPoint" />
            <Array as="points">
              <mxPoint x="518" y="207" />
            </Array>
          </mxGeometry>
        </mxCell>
        <mxCell id="fExjuZPJxnfh54GCOMQb-11" value="&lt;font style=&quot;font-size: 13px;&quot;&gt;&lt;u style=&quot;&quot;&gt;Ins_ID&lt;/u&gt;&lt;/font&gt;" style="ellipse;whiteSpace=wrap;html=1;" parent="1" vertex="1">
          <mxGeometry x="465" y="159" width="72" height="48" as="geometry" />
        </mxCell>
        <mxCell id="fExjuZPJxnfh54GCOMQb-17" style="edgeStyle=orthogonalEdgeStyle;rounded=0;orthogonalLoop=1;jettySize=auto;html=1;exitX=0;exitY=0.5;exitDx=0;exitDy=0;entryX=1;entryY=0.25;entryDx=0;entryDy=0;endArrow=none;endFill=0;shape=link;" parent="1" source="fExjuZPJxnfh54GCOMQb-16" target="fExjuZPJxnfh54GCOMQb-1" edge="1">
          <mxGeometry relative="1" as="geometry" />
        </mxCell>
        <mxCell id="fExjuZPJxnfh54GCOMQb-18" style="edgeStyle=orthogonalEdgeStyle;rounded=0;orthogonalLoop=1;jettySize=auto;html=1;exitX=1;exitY=0.5;exitDx=0;exitDy=0;entryX=0;entryY=0.5;entryDx=0;entryDy=0;endArrow=none;endFill=0;shape=link;" parent="1" source="fExjuZPJxnfh54GCOMQb-16" target="fExjuZPJxnfh54GCOMQb-9" edge="1">
          <mxGeometry relative="1" as="geometry" />
        </mxCell>
        <mxCell id="jXS0DLB_lHR7ojzFCZE1-30" style="edgeStyle=orthogonalEdgeStyle;rounded=0;orthogonalLoop=1;jettySize=auto;html=1;exitX=0.5;exitY=1;exitDx=0;exitDy=0;entryX=0.5;entryY=0;entryDx=0;entryDy=0;endArrow=none;endFill=0;shape=link;" parent="1" source="fExjuZPJxnfh54GCOMQb-16" target="jXS0DLB_lHR7ojzFCZE1-14" edge="1">
          <mxGeometry relative="1" as="geometry" />
        </mxCell>
        <mxCell id="fExjuZPJxnfh54GCOMQb-16" value="Teaches" style="rhombus;whiteSpace=wrap;html=1;" parent="1" vertex="1">
          <mxGeometry x="702" y="213" width="80" height="80" as="geometry" />
        </mxCell>
        <mxCell id="fExjuZPJxnfh54GCOMQb-24" value="&lt;span style=&quot;font-size: 13px;&quot;&gt;Email&lt;/span&gt;" style="ellipse;whiteSpace=wrap;html=1;" parent="1" vertex="1">
          <mxGeometry x="416" y="195" width="65" height="48" as="geometry" />
        </mxCell>
        <mxCell id="fExjuZPJxnfh54GCOMQb-25" value="&lt;span style=&quot;font-size: 13px;&quot;&gt;Email&lt;/span&gt;" style="ellipse;whiteSpace=wrap;html=1;direction=south;" parent="1" vertex="1">
          <mxGeometry x="913" y="589" width="52.87" height="57" as="geometry" />
        </mxCell>
        <mxCell id="fExjuZPJxnfh54GCOMQb-50" style="edgeStyle=orthogonalEdgeStyle;rounded=0;orthogonalLoop=1;jettySize=auto;html=1;exitX=0.5;exitY=1;exitDx=0;exitDy=0;endArrow=none;endFill=0;" parent="1" source="fExjuZPJxnfh54GCOMQb-43" edge="1">
          <mxGeometry relative="1" as="geometry">
            <mxPoint x="828" y="228.6666259765625" as="targetPoint" />
          </mxGeometry>
        </mxCell>
        <mxCell id="fExjuZPJxnfh54GCOMQb-43" value="&lt;span style=&quot;font-size: 13px;&quot;&gt;Crs_Name&lt;/span&gt;" style="ellipse;whiteSpace=wrap;html=1;" parent="1" vertex="1">
          <mxGeometry x="790" y="164" width="66" height="48" as="geometry" />
        </mxCell>
        <mxCell id="fExjuZPJxnfh54GCOMQb-49" style="edgeStyle=orthogonalEdgeStyle;rounded=0;orthogonalLoop=1;jettySize=auto;html=1;exitX=0.5;exitY=1;exitDx=0;exitDy=0;entryX=0.75;entryY=0;entryDx=0;entryDy=0;endArrow=none;endFill=0;" parent="1" source="fExjuZPJxnfh54GCOMQb-44" target="fExjuZPJxnfh54GCOMQb-9" edge="1">
          <mxGeometry relative="1" as="geometry" />
        </mxCell>
        <mxCell id="fExjuZPJxnfh54GCOMQb-44" value="&lt;span style=&quot;font-size: 13px;&quot;&gt;Descriptipn&lt;/span&gt;" style="ellipse;whiteSpace=wrap;html=1;" parent="1" vertex="1">
          <mxGeometry x="858" y="171" width="69" height="41" as="geometry" />
        </mxCell>
        <mxCell id="fExjuZPJxnfh54GCOMQb-48" style="edgeStyle=orthogonalEdgeStyle;rounded=0;orthogonalLoop=1;jettySize=auto;html=1;exitX=0;exitY=0.5;exitDx=0;exitDy=0;entryX=1;entryY=0.25;entryDx=0;entryDy=0;endArrow=none;endFill=0;" parent="1" source="fExjuZPJxnfh54GCOMQb-45" target="fExjuZPJxnfh54GCOMQb-9" edge="1">
          <mxGeometry relative="1" as="geometry" />
        </mxCell>
        <mxCell id="fExjuZPJxnfh54GCOMQb-45" value="&lt;span style=&quot;font-size: 13px;&quot;&gt;Max Deg&lt;/span&gt;" style="ellipse;whiteSpace=wrap;html=1;" parent="1" vertex="1">
          <mxGeometry x="918" y="194.5" width="59" height="37" as="geometry" />
        </mxCell>
        <mxCell id="fExjuZPJxnfh54GCOMQb-47" style="edgeStyle=orthogonalEdgeStyle;rounded=0;orthogonalLoop=1;jettySize=auto;html=1;exitX=0;exitY=0.5;exitDx=0;exitDy=0;entryX=1;entryY=0.5;entryDx=0;entryDy=0;endArrow=none;endFill=0;" parent="1" source="fExjuZPJxnfh54GCOMQb-46" target="fExjuZPJxnfh54GCOMQb-9" edge="1">
          <mxGeometry relative="1" as="geometry" />
        </mxCell>
        <mxCell id="fExjuZPJxnfh54GCOMQb-46" value="&lt;span style=&quot;font-size: 13px;&quot;&gt;Min Deg&lt;/span&gt;" style="ellipse;whiteSpace=wrap;html=1;" parent="1" vertex="1">
          <mxGeometry x="931" y="232" width="49" height="40" as="geometry" />
        </mxCell>
        <mxCell id="jXS0DLB_lHR7ojzFCZE1-3" style="edgeStyle=orthogonalEdgeStyle;rounded=0;orthogonalLoop=1;jettySize=auto;html=1;exitX=1;exitY=1;exitDx=0;exitDy=0;entryX=1;entryY=0.25;entryDx=0;entryDy=0;endArrow=none;endFill=0;" parent="1" source="fExjuZPJxnfh54GCOMQb-58" target="fExjuZPJxnfh54GCOMQb-4" edge="1">
          <mxGeometry relative="1" as="geometry" />
        </mxCell>
        <mxCell id="fExjuZPJxnfh54GCOMQb-58" value="&lt;span style=&quot;font-size: 13px;&quot;&gt;Date&lt;/span&gt;" style="ellipse;whiteSpace=wrap;html=1;" parent="1" vertex="1">
          <mxGeometry x="276" y="377.5" width="50" height="43" as="geometry" />
        </mxCell>
        <mxCell id="fExjuZPJxnfh54GCOMQb-60" value="1" style="text;html=1;align=center;verticalAlign=middle;resizable=0;points=[];autosize=1;strokeColor=none;fillColor=none;" parent="1" vertex="1">
          <mxGeometry x="592" y="231" width="25" height="26" as="geometry" />
        </mxCell>
        <mxCell id="fExjuZPJxnfh54GCOMQb-61" value="&lt;font style=&quot;font-size: 13px;&quot;&gt;M&lt;/font&gt;" style="text;html=1;align=center;verticalAlign=middle;resizable=0;points=[];autosize=1;strokeColor=none;fillColor=none;" parent="1" vertex="1">
          <mxGeometry x="772" y="230" width="29" height="28" as="geometry" />
        </mxCell>
        <mxCell id="fExjuZPJxnfh54GCOMQb-67" value="&lt;span style=&quot;font-size: 13px;&quot;&gt;Start Time&lt;/span&gt;" style="ellipse;whiteSpace=wrap;html=1;" parent="1" vertex="1">
          <mxGeometry x="154" y="402" width="50" height="39" as="geometry" />
        </mxCell>
        <mxCell id="fExjuZPJxnfh54GCOMQb-70" style="edgeStyle=orthogonalEdgeStyle;rounded=0;orthogonalLoop=1;jettySize=auto;html=1;exitX=1;exitY=0.5;exitDx=0;exitDy=0;entryX=0;entryY=1;entryDx=0;entryDy=0;endArrow=none;endFill=0;" parent="1" source="fExjuZPJxnfh54GCOMQb-68" target="fExjuZPJxnfh54GCOMQb-4" edge="1">
          <mxGeometry relative="1" as="geometry" />
        </mxCell>
        <mxCell id="fExjuZPJxnfh54GCOMQb-68" value="&lt;span style=&quot;font-size: 13px;&quot;&gt;End Time&lt;/span&gt;" style="ellipse;whiteSpace=wrap;html=1;" parent="1" vertex="1">
          <mxGeometry x="146" y="450" width="50" height="42" as="geometry" />
        </mxCell>
        <mxCell id="fExjuZPJxnfh54GCOMQb-69" style="edgeStyle=orthogonalEdgeStyle;rounded=0;orthogonalLoop=1;jettySize=auto;html=1;exitX=1;exitY=0.5;exitDx=0;exitDy=0;entryX=0.1;entryY=0.047;entryDx=0;entryDy=0;entryPerimeter=0;endArrow=none;endFill=0;" parent="1" source="fExjuZPJxnfh54GCOMQb-67" target="fExjuZPJxnfh54GCOMQb-4" edge="1">
          <mxGeometry relative="1" as="geometry" />
        </mxCell>
        <mxCell id="fExjuZPJxnfh54GCOMQb-72" style="edgeStyle=orthogonalEdgeStyle;rounded=0;orthogonalLoop=1;jettySize=auto;html=1;exitX=1;exitY=0.5;exitDx=0;exitDy=0;endArrow=none;endFill=0;" parent="1" source="fExjuZPJxnfh54GCOMQb-71" edge="1">
          <mxGeometry relative="1" as="geometry">
            <mxPoint x="217.00001525878906" y="477.3333740234375" as="targetPoint" />
          </mxGeometry>
        </mxCell>
        <mxCell id="fExjuZPJxnfh54GCOMQb-71" value="&lt;span style=&quot;font-size: 13px;&quot;&gt;Total&lt;br&gt;Time&lt;/span&gt;" style="ellipse;whiteSpace=wrap;html=1;dashed=1;" parent="1" vertex="1">
          <mxGeometry x="142" y="498" width="50" height="42" as="geometry" />
        </mxCell>
        <mxCell id="fExjuZPJxnfh54GCOMQb-74" style="edgeStyle=orthogonalEdgeStyle;rounded=0;orthogonalLoop=1;jettySize=auto;html=1;exitX=0;exitY=0.5;exitDx=0;exitDy=0;entryX=1;entryY=0.75;entryDx=0;entryDy=0;endArrow=none;endFill=0;" parent="1" source="fExjuZPJxnfh54GCOMQb-73" target="fExjuZPJxnfh54GCOMQb-9" edge="1">
          <mxGeometry relative="1" as="geometry" />
        </mxCell>
        <mxCell id="fExjuZPJxnfh54GCOMQb-73" value="&lt;span style=&quot;font-size: 13px;&quot;&gt;&lt;u&gt;Crs_ID&lt;/u&gt;&lt;/span&gt;" style="ellipse;whiteSpace=wrap;html=1;" parent="1" vertex="1">
          <mxGeometry x="925" y="274" width="54" height="37" as="geometry" />
        </mxCell>
        <mxCell id="p9Ln73T7l0obJPTR8ibc-24" style="edgeStyle=orthogonalEdgeStyle;rounded=0;orthogonalLoop=1;jettySize=auto;html=1;exitX=0;exitY=0.75;exitDx=0;exitDy=0;entryX=1;entryY=0.5;entryDx=0;entryDy=0;endArrow=none;endFill=0;" parent="1" source="fExjuZPJxnfh54GCOMQb-79" target="p9Ln73T7l0obJPTR8ibc-23" edge="1">
          <mxGeometry relative="1" as="geometry" />
        </mxCell>
        <mxCell id="jXS0DLB_lHR7ojzFCZE1-2" style="edgeStyle=orthogonalEdgeStyle;rounded=0;orthogonalLoop=1;jettySize=auto;html=1;exitX=1;exitY=0.75;exitDx=0;exitDy=0;entryX=1;entryY=0;entryDx=0;entryDy=0;endArrow=none;endFill=0;shape=link;" parent="1" source="fExjuZPJxnfh54GCOMQb-79" target="p9Ln73T7l0obJPTR8ibc-5" edge="1">
          <mxGeometry relative="1" as="geometry" />
        </mxCell>
        <mxCell id="jXS0DLB_lHR7ojzFCZE1-13" style="edgeStyle=orthogonalEdgeStyle;rounded=0;orthogonalLoop=1;jettySize=auto;html=1;exitX=0;exitY=1;exitDx=0;exitDy=0;entryX=1;entryY=0.5;entryDx=0;entryDy=0;endArrow=none;endFill=0;shape=link;" parent="1" source="fExjuZPJxnfh54GCOMQb-79" target="jXS0DLB_lHR7ojzFCZE1-9" edge="1">
          <mxGeometry relative="1" as="geometry" />
        </mxCell>
        <mxCell id="idugPT6sOUHTakiWyFXu-3" style="edgeStyle=orthogonalEdgeStyle;rounded=0;orthogonalLoop=1;jettySize=auto;html=1;exitX=1;exitY=0.25;exitDx=0;exitDy=0;entryX=0.5;entryY=0;entryDx=0;entryDy=0;endArrow=none;endFill=0;shape=link;" parent="1" source="fExjuZPJxnfh54GCOMQb-79" target="idugPT6sOUHTakiWyFXu-1" edge="1">
          <mxGeometry relative="1" as="geometry" />
        </mxCell>
        <mxCell id="fExjuZPJxnfh54GCOMQb-79" value="&lt;font style=&quot;font-size: 16px;&quot;&gt;Branch&lt;/font&gt;" style="html=1;dashed=0;whiteSpace=wrap;" parent="1" vertex="1">
          <mxGeometry x="803" y="71" width="100" height="50" as="geometry" />
        </mxCell>
        <mxCell id="fExjuZPJxnfh54GCOMQb-80" value="&lt;span style=&quot;font-size: 13px;&quot;&gt;&lt;u&gt;Bran_ID&lt;/u&gt;&lt;/span&gt;" style="ellipse;whiteSpace=wrap;html=1;" parent="1" vertex="1">
          <mxGeometry x="780" y="13" width="67" height="48" as="geometry" />
        </mxCell>
        <mxCell id="fExjuZPJxnfh54GCOMQb-81" style="edgeStyle=orthogonalEdgeStyle;rounded=0;orthogonalLoop=1;jettySize=auto;html=1;entryX=0.157;entryY=0.033;entryDx=0;entryDy=0;entryPerimeter=0;endArrow=none;endFill=0;" parent="1" target="fExjuZPJxnfh54GCOMQb-79" edge="1">
          <mxGeometry relative="1" as="geometry">
            <mxPoint x="819" y="58" as="sourcePoint" />
          </mxGeometry>
        </mxCell>
        <mxCell id="fExjuZPJxnfh54GCOMQb-92" value="Corrective" style="ellipse;whiteSpace=wrap;html=1;" parent="1" vertex="1">
          <mxGeometry x="189" y="659" width="60" height="44" as="geometry" />
        </mxCell>
        <mxCell id="PmQbQZa9qMLqMzXBqfcJ-19" style="edgeStyle=orthogonalEdgeStyle;rounded=0;orthogonalLoop=1;jettySize=auto;html=1;exitX=0;exitY=0.5;exitDx=0;exitDy=0;entryX=1;entryY=1;entryDx=0;entryDy=0;endArrow=none;endFill=0;" parent="1" source="fExjuZPJxnfh54GCOMQb-95" target="fExjuZPJxnfh54GCOMQb-8" edge="1">
          <mxGeometry relative="1" as="geometry" />
        </mxCell>
        <mxCell id="fExjuZPJxnfh54GCOMQb-95" value="&lt;span style=&quot;font-size: 13px;&quot;&gt;&lt;u&gt;Track_Id&lt;/u&gt;&lt;/span&gt;" style="ellipse;whiteSpace=wrap;html=1;" parent="1" vertex="1">
          <mxGeometry x="1291" y="303.5" width="57" height="35" as="geometry" />
        </mxCell>
        <mxCell id="PmQbQZa9qMLqMzXBqfcJ-38" style="edgeStyle=orthogonalEdgeStyle;rounded=0;orthogonalLoop=1;jettySize=auto;html=1;exitX=0;exitY=0.5;exitDx=0;exitDy=0;endArrow=none;endFill=0;entryX=0.613;entryY=0.937;entryDx=0;entryDy=0;entryPerimeter=0;" parent="1" source="fExjuZPJxnfh54GCOMQb-96" target="fExjuZPJxnfh54GCOMQb-8" edge="1">
          <mxGeometry relative="1" as="geometry">
            <mxPoint x="1201.6667175292969" y="314.66668701171875" as="targetPoint" />
          </mxGeometry>
        </mxCell>
        <mxCell id="fExjuZPJxnfh54GCOMQb-96" value="&lt;span style=&quot;font-size: 13px;&quot;&gt;Track Name&lt;/span&gt;" style="ellipse;whiteSpace=wrap;html=1;" parent="1" vertex="1">
          <mxGeometry x="1279" y="342.5" width="57" height="35" as="geometry" />
        </mxCell>
        <mxCell id="p9Ln73T7l0obJPTR8ibc-6" style="edgeStyle=orthogonalEdgeStyle;rounded=0;orthogonalLoop=1;jettySize=auto;html=1;exitX=0.5;exitY=1;exitDx=0;exitDy=0;entryX=1;entryY=0.75;entryDx=0;entryDy=0;endArrow=none;endFill=0;shape=link;" parent="1" source="fExjuZPJxnfh54GCOMQb-106" target="fExjuZPJxnfh54GCOMQb-2" edge="1">
          <mxGeometry relative="1" as="geometry" />
        </mxCell>
        <mxCell id="fExjuZPJxnfh54GCOMQb-106" value="Choose" style="rhombus;whiteSpace=wrap;html=1;" parent="1" vertex="1">
          <mxGeometry x="1079" y="350" width="80" height="80" as="geometry" />
        </mxCell>
        <mxCell id="fExjuZPJxnfh54GCOMQb-110" value="M" style="text;html=1;align=center;verticalAlign=middle;resizable=0;points=[];autosize=1;strokeColor=none;fillColor=none;" parent="1" vertex="1">
          <mxGeometry x="1075" y="413" width="28" height="26" as="geometry" />
        </mxCell>
        <mxCell id="PmQbQZa9qMLqMzXBqfcJ-1" style="edgeStyle=orthogonalEdgeStyle;rounded=0;orthogonalLoop=1;jettySize=auto;html=1;exitX=0.5;exitY=0;exitDx=0;exitDy=0;entryX=0.403;entryY=1;entryDx=0;entryDy=0;entryPerimeter=0;endArrow=none;endFill=0;" parent="1" source="fExjuZPJxnfh54GCOMQb-92" target="fExjuZPJxnfh54GCOMQb-4" edge="1">
          <mxGeometry relative="1" as="geometry" />
        </mxCell>
        <mxCell id="PmQbQZa9qMLqMzXBqfcJ-5" style="edgeStyle=orthogonalEdgeStyle;rounded=0;orthogonalLoop=1;jettySize=auto;html=1;exitX=1;exitY=0.5;exitDx=0;exitDy=0;entryX=0.25;entryY=0;entryDx=0;entryDy=0;endArrow=none;endFill=0;" parent="1" source="PmQbQZa9qMLqMzXBqfcJ-2" target="fExjuZPJxnfh54GCOMQb-4" edge="1">
          <mxGeometry relative="1" as="geometry" />
        </mxCell>
        <mxCell id="PmQbQZa9qMLqMzXBqfcJ-2" value="&lt;span style=&quot;font-size: 13px;&quot;&gt;&lt;u&gt;Ex_ID&lt;/u&gt;&lt;/span&gt;" style="ellipse;whiteSpace=wrap;html=1;" parent="1" vertex="1">
          <mxGeometry x="107" y="365" width="50" height="48" as="geometry" />
        </mxCell>
        <mxCell id="PmQbQZa9qMLqMzXBqfcJ-8" style="edgeStyle=orthogonalEdgeStyle;rounded=0;orthogonalLoop=1;jettySize=auto;html=1;exitX=1;exitY=0.5;exitDx=0;exitDy=0;entryX=0;entryY=0.5;entryDx=0;entryDy=0;endArrow=none;endFill=0;" parent="1" source="PmQbQZa9qMLqMzXBqfcJ-7" target="fExjuZPJxnfh54GCOMQb-79" edge="1">
          <mxGeometry relative="1" as="geometry" />
        </mxCell>
        <mxCell id="PmQbQZa9qMLqMzXBqfcJ-7" value="&lt;span style=&quot;font-size: 13px;&quot;&gt;Bran_Name&lt;/span&gt;" style="ellipse;whiteSpace=wrap;html=1;" parent="1" vertex="1">
          <mxGeometry x="719" y="56.5" width="71" height="48" as="geometry" />
        </mxCell>
        <mxCell id="PmQbQZa9qMLqMzXBqfcJ-21" style="edgeStyle=orthogonalEdgeStyle;rounded=0;orthogonalLoop=1;jettySize=auto;html=1;exitX=1;exitY=0.75;exitDx=0;exitDy=0;entryX=0;entryY=0.5;entryDx=0;entryDy=0;endArrow=none;endFill=0;" parent="1" source="PmQbQZa9qMLqMzXBqfcJ-22" target="PmQbQZa9qMLqMzXBqfcJ-24" edge="1">
          <mxGeometry relative="1" as="geometry" />
        </mxCell>
        <mxCell id="idugPT6sOUHTakiWyFXu-2" style="edgeStyle=orthogonalEdgeStyle;rounded=0;orthogonalLoop=1;jettySize=auto;html=1;exitX=0.25;exitY=1;exitDx=0;exitDy=0;entryX=1;entryY=0.5;entryDx=0;entryDy=0;endArrow=none;endFill=0;shape=link;" parent="1" source="PmQbQZa9qMLqMzXBqfcJ-22" target="idugPT6sOUHTakiWyFXu-1" edge="1">
          <mxGeometry relative="1" as="geometry" />
        </mxCell>
        <mxCell id="PmQbQZa9qMLqMzXBqfcJ-22" value="&lt;font style=&quot;font-size: 15px;&quot;&gt;Department&lt;/font&gt;" style="html=1;dashed=0;whiteSpace=wrap;" parent="1" vertex="1">
          <mxGeometry x="1106" y="64" width="100" height="50" as="geometry" />
        </mxCell>
        <mxCell id="PmQbQZa9qMLqMzXBqfcJ-24" value="&lt;span style=&quot;font-size: 13px;&quot;&gt;&lt;u&gt;Dep_ID&lt;/u&gt;&lt;/span&gt;" style="ellipse;whiteSpace=wrap;html=1;" parent="1" vertex="1">
          <mxGeometry x="1225.5" y="78.5" width="65.5" height="42" as="geometry" />
        </mxCell>
        <mxCell id="PmQbQZa9qMLqMzXBqfcJ-31" style="edgeStyle=orthogonalEdgeStyle;rounded=0;orthogonalLoop=1;jettySize=auto;html=1;exitX=0.5;exitY=0;exitDx=0;exitDy=0;entryX=0.75;entryY=1;entryDx=0;entryDy=0;endArrow=none;endFill=0;shape=link;" parent="1" source="PmQbQZa9qMLqMzXBqfcJ-30" target="PmQbQZa9qMLqMzXBqfcJ-22" edge="1">
          <mxGeometry relative="1" as="geometry" />
        </mxCell>
        <mxCell id="PmQbQZa9qMLqMzXBqfcJ-32" style="edgeStyle=orthogonalEdgeStyle;rounded=0;orthogonalLoop=1;jettySize=auto;html=1;exitX=0.5;exitY=1;exitDx=0;exitDy=0;entryX=0.5;entryY=0;entryDx=0;entryDy=0;endArrow=none;endFill=0;shape=link;" parent="1" source="PmQbQZa9qMLqMzXBqfcJ-30" target="fExjuZPJxnfh54GCOMQb-8" edge="1">
          <mxGeometry relative="1" as="geometry" />
        </mxCell>
        <mxCell id="PmQbQZa9qMLqMzXBqfcJ-30" value="Has" style="rhombus;whiteSpace=wrap;html=1;" parent="1" vertex="1">
          <mxGeometry x="1167" y="161" width="54.5" height="58" as="geometry" />
        </mxCell>
        <mxCell id="PmQbQZa9qMLqMzXBqfcJ-33" value="1" style="text;html=1;align=center;verticalAlign=middle;resizable=0;points=[];autosize=1;strokeColor=none;fillColor=none;" parent="1" vertex="1">
          <mxGeometry x="1194" y="137" width="25" height="26" as="geometry" />
        </mxCell>
        <mxCell id="PmQbQZa9qMLqMzXBqfcJ-34" value="M" style="text;html=1;align=center;verticalAlign=middle;resizable=0;points=[];autosize=1;strokeColor=none;fillColor=none;" parent="1" vertex="1">
          <mxGeometry x="1197.5" y="216" width="28" height="26" as="geometry" />
        </mxCell>
        <mxCell id="PmQbQZa9qMLqMzXBqfcJ-40" style="edgeStyle=orthogonalEdgeStyle;rounded=0;orthogonalLoop=1;jettySize=auto;html=1;exitX=1;exitY=0.5;exitDx=0;exitDy=0;entryX=0;entryY=0.5;entryDx=0;entryDy=0;endArrow=none;endFill=0;shape=link;" parent="1" source="PmQbQZa9qMLqMzXBqfcJ-39" target="fExjuZPJxnfh54GCOMQb-8" edge="1">
          <mxGeometry relative="1" as="geometry" />
        </mxCell>
        <mxCell id="PmQbQZa9qMLqMzXBqfcJ-39" value="Has" style="rhombus;whiteSpace=wrap;html=1;" parent="1" vertex="1">
          <mxGeometry x="876" y="319" width="58" height="52" as="geometry" />
        </mxCell>
        <mxCell id="PmQbQZa9qMLqMzXBqfcJ-42" value="M" style="text;html=1;align=center;verticalAlign=middle;resizable=0;points=[];autosize=1;strokeColor=none;fillColor=none;" parent="1" vertex="1">
          <mxGeometry x="931" y="319" width="28" height="26" as="geometry" />
        </mxCell>
        <mxCell id="PmQbQZa9qMLqMzXBqfcJ-43" value="M" style="text;html=1;align=center;verticalAlign=middle;resizable=0;points=[];autosize=1;strokeColor=none;fillColor=none;" parent="1" vertex="1">
          <mxGeometry x="868" y="307" width="28" height="26" as="geometry" />
        </mxCell>
        <mxCell id="PmQbQZa9qMLqMzXBqfcJ-47" value="1" style="text;html=1;align=center;verticalAlign=middle;resizable=0;points=[];autosize=1;strokeColor=none;fillColor=none;" parent="1" vertex="1">
          <mxGeometry x="1153" y="359" width="25" height="26" as="geometry" />
        </mxCell>
        <mxCell id="PmQbQZa9qMLqMzXBqfcJ-53" style="edgeStyle=orthogonalEdgeStyle;rounded=0;orthogonalLoop=1;jettySize=auto;html=1;exitX=0;exitY=1;exitDx=0;exitDy=0;entryX=1;entryY=0;entryDx=0;entryDy=0;endArrow=none;endFill=0;" parent="1" source="PmQbQZa9qMLqMzXBqfcJ-52" target="PmQbQZa9qMLqMzXBqfcJ-22" edge="1">
          <mxGeometry relative="1" as="geometry" />
        </mxCell>
        <mxCell id="PmQbQZa9qMLqMzXBqfcJ-52" value="&lt;span style=&quot;font-size: 13px;&quot;&gt;Dep_Name&lt;/span&gt;" style="ellipse;whiteSpace=wrap;html=1;" parent="1" vertex="1">
          <mxGeometry x="1210" y="32" width="72" height="43" as="geometry" />
        </mxCell>
        <mxCell id="PmQbQZa9qMLqMzXBqfcJ-78" style="edgeStyle=orthogonalEdgeStyle;rounded=0;orthogonalLoop=1;jettySize=auto;html=1;exitX=1;exitY=0.5;exitDx=0;exitDy=0;entryX=0;entryY=1;entryDx=0;entryDy=0;endArrow=none;endFill=0;shape=link;" parent="1" source="PmQbQZa9qMLqMzXBqfcJ-63" target="fExjuZPJxnfh54GCOMQb-2" edge="1">
          <mxGeometry relative="1" as="geometry" />
        </mxCell>
        <mxCell id="PmQbQZa9qMLqMzXBqfcJ-79" style="edgeStyle=orthogonalEdgeStyle;rounded=0;orthogonalLoop=1;jettySize=auto;html=1;exitX=0;exitY=0.5;exitDx=0;exitDy=0;entryX=1;entryY=1;entryDx=0;entryDy=0;endArrow=none;endFill=0;shape=link;" parent="1" source="PmQbQZa9qMLqMzXBqfcJ-63" target="fExjuZPJxnfh54GCOMQb-4" edge="1">
          <mxGeometry relative="1" as="geometry" />
        </mxCell>
        <mxCell id="jXS0DLB_lHR7ojzFCZE1-8" style="edgeStyle=orthogonalEdgeStyle;rounded=0;orthogonalLoop=1;jettySize=auto;html=1;exitX=0.5;exitY=1;exitDx=0;exitDy=0;entryX=0;entryY=0;entryDx=0;entryDy=0;endArrow=none;endFill=0;" parent="1" source="PmQbQZa9qMLqMzXBqfcJ-63" target="jXS0DLB_lHR7ojzFCZE1-7" edge="1">
          <mxGeometry relative="1" as="geometry" />
        </mxCell>
        <mxCell id="idugPT6sOUHTakiWyFXu-80" style="edgeStyle=orthogonalEdgeStyle;rounded=0;orthogonalLoop=1;jettySize=auto;html=1;exitX=1;exitY=1;exitDx=0;exitDy=0;entryX=0;entryY=0;entryDx=0;entryDy=0;endArrow=none;endFill=0;" parent="1" source="PmQbQZa9qMLqMzXBqfcJ-63" target="idugPT6sOUHTakiWyFXu-79" edge="1">
          <mxGeometry relative="1" as="geometry" />
        </mxCell>
        <mxCell id="PmQbQZa9qMLqMzXBqfcJ-63" value="Answer" style="rhombus;whiteSpace=wrap;html=1;" parent="1" vertex="1">
          <mxGeometry x="540" y="496" width="80" height="73" as="geometry" />
        </mxCell>
        <mxCell id="PmQbQZa9qMLqMzXBqfcJ-88" style="edgeStyle=orthogonalEdgeStyle;rounded=0;orthogonalLoop=1;jettySize=auto;html=1;exitX=1;exitY=1;exitDx=0;exitDy=0;entryX=0.5;entryY=0;entryDx=0;entryDy=0;endArrow=none;endFill=0;shape=link;" parent="1" source="PmQbQZa9qMLqMzXBqfcJ-64" target="PmQbQZa9qMLqMzXBqfcJ-63" edge="1">
          <mxGeometry relative="1" as="geometry" />
        </mxCell>
        <mxCell id="idugPT6sOUHTakiWyFXu-42" style="edgeStyle=orthogonalEdgeStyle;rounded=0;orthogonalLoop=1;jettySize=auto;html=1;exitX=0;exitY=1;exitDx=0;exitDy=0;entryX=0;entryY=0.5;entryDx=0;entryDy=0;endArrow=none;endFill=0;shape=link;" parent="1" source="PmQbQZa9qMLqMzXBqfcJ-64" target="idugPT6sOUHTakiWyFXu-40" edge="1">
          <mxGeometry relative="1" as="geometry" />
        </mxCell>
        <mxCell id="PmQbQZa9qMLqMzXBqfcJ-64" value="&lt;font style=&quot;font-size: 14px;&quot;&gt;Qu_Pool&lt;/font&gt;" style="rounded=0;whiteSpace=wrap;html=1;" parent="1" vertex="1">
          <mxGeometry x="94" y="183" width="120" height="60" as="geometry" />
        </mxCell>
        <mxCell id="jXS0DLB_lHR7ojzFCZE1-44" style="edgeStyle=orthogonalEdgeStyle;rounded=0;orthogonalLoop=1;jettySize=auto;html=1;exitX=0.5;exitY=1;exitDx=0;exitDy=0;entryX=0.5;entryY=0;entryDx=0;entryDy=0;endArrow=none;endFill=0;" parent="1" source="PmQbQZa9qMLqMzXBqfcJ-65" target="PmQbQZa9qMLqMzXBqfcJ-64" edge="1">
          <mxGeometry relative="1" as="geometry" />
        </mxCell>
        <mxCell id="PmQbQZa9qMLqMzXBqfcJ-65" value="&lt;span style=&quot;font-size: 13px;&quot;&gt;&lt;u&gt;Qu_ID&lt;/u&gt;&lt;/span&gt;" style="ellipse;whiteSpace=wrap;html=1;" parent="1" vertex="1">
          <mxGeometry x="109" y="92" width="56" height="39" as="geometry" />
        </mxCell>
        <mxCell id="PmQbQZa9qMLqMzXBqfcJ-73" style="edgeStyle=orthogonalEdgeStyle;rounded=0;orthogonalLoop=1;jettySize=auto;html=1;exitX=1;exitY=0.5;exitDx=0;exitDy=0;entryX=0;entryY=0.5;entryDx=0;entryDy=0;endArrow=none;endFill=0;shape=link;" parent="1" source="PmQbQZa9qMLqMzXBqfcJ-72" target="fExjuZPJxnfh54GCOMQb-1" edge="1">
          <mxGeometry relative="1" as="geometry">
            <Array as="points">
              <mxPoint x="422" y="241" />
              <mxPoint x="422" y="259" />
              <mxPoint x="488" y="259" />
            </Array>
          </mxGeometry>
        </mxCell>
        <mxCell id="PmQbQZa9qMLqMzXBqfcJ-74" style="edgeStyle=orthogonalEdgeStyle;rounded=0;orthogonalLoop=1;jettySize=auto;html=1;exitX=0;exitY=0.5;exitDx=0;exitDy=0;entryX=1;entryY=0.75;entryDx=0;entryDy=0;endArrow=none;endFill=0;" parent="1" source="PmQbQZa9qMLqMzXBqfcJ-72" target="PmQbQZa9qMLqMzXBqfcJ-64" edge="1">
          <mxGeometry relative="1" as="geometry" />
        </mxCell>
        <mxCell id="PmQbQZa9qMLqMzXBqfcJ-86" style="edgeStyle=orthogonalEdgeStyle;rounded=0;orthogonalLoop=1;jettySize=auto;html=1;exitX=0.5;exitY=1;exitDx=0;exitDy=0;endArrow=none;endFill=0;" parent="1" source="PmQbQZa9qMLqMzXBqfcJ-72" target="fExjuZPJxnfh54GCOMQb-4" edge="1">
          <mxGeometry relative="1" as="geometry" />
        </mxCell>
        <mxCell id="PmQbQZa9qMLqMzXBqfcJ-72" value="Choose" style="rhombus;whiteSpace=wrap;html=1;" parent="1" vertex="1">
          <mxGeometry x="276" y="201" width="80" height="80" as="geometry" />
        </mxCell>
        <mxCell id="PmQbQZa9qMLqMzXBqfcJ-75" value="M" style="text;html=1;align=center;verticalAlign=middle;resizable=0;points=[];autosize=1;strokeColor=none;fillColor=none;" parent="1" vertex="1">
          <mxGeometry x="254" y="212" width="28" height="26" as="geometry" />
        </mxCell>
        <mxCell id="PmQbQZa9qMLqMzXBqfcJ-76" value="1" style="text;html=1;align=center;verticalAlign=middle;resizable=0;points=[];autosize=1;strokeColor=none;fillColor=none;" parent="1" vertex="1">
          <mxGeometry x="353" y="216" width="25" height="26" as="geometry" />
        </mxCell>
        <mxCell id="PmQbQZa9qMLqMzXBqfcJ-80" value="M" style="text;html=1;align=center;verticalAlign=middle;resizable=0;points=[];autosize=1;strokeColor=none;fillColor=none;" parent="1" vertex="1">
          <mxGeometry x="616" y="505" width="28" height="26" as="geometry" />
        </mxCell>
        <mxCell id="PmQbQZa9qMLqMzXBqfcJ-81" value="M" style="text;html=1;align=center;verticalAlign=middle;resizable=0;points=[];autosize=1;strokeColor=none;fillColor=none;" parent="1" vertex="1">
          <mxGeometry x="511" y="505" width="28" height="26" as="geometry" />
        </mxCell>
        <mxCell id="PmQbQZa9qMLqMzXBqfcJ-90" value="1" style="text;html=1;align=center;verticalAlign=middle;resizable=0;points=[];autosize=1;strokeColor=none;fillColor=none;" parent="1" vertex="1">
          <mxGeometry x="295" y="272" width="25" height="26" as="geometry" />
        </mxCell>
        <mxCell id="PmQbQZa9qMLqMzXBqfcJ-91" value="N" style="text;html=1;align=center;verticalAlign=middle;resizable=0;points=[];autosize=1;strokeColor=none;fillColor=none;" parent="1" vertex="1">
          <mxGeometry x="547" y="475" width="27" height="26" as="geometry" />
        </mxCell>
        <mxCell id="PmQbQZa9qMLqMzXBqfcJ-107" style="edgeStyle=orthogonalEdgeStyle;rounded=0;orthogonalLoop=1;jettySize=auto;html=1;exitX=1;exitY=0.5;exitDx=0;exitDy=0;entryX=0;entryY=0.75;entryDx=0;entryDy=0;endArrow=none;endFill=0;" parent="1" source="PmQbQZa9qMLqMzXBqfcJ-102" target="PmQbQZa9qMLqMzXBqfcJ-64" edge="1">
          <mxGeometry relative="1" as="geometry" />
        </mxCell>
        <mxCell id="PmQbQZa9qMLqMzXBqfcJ-102" value="&lt;span style=&quot;font-size: 13px;&quot;&gt;Type&lt;/span&gt;" style="ellipse;whiteSpace=wrap;html=1;" parent="1" vertex="1">
          <mxGeometry x="15" y="202" width="66" height="40" as="geometry" />
        </mxCell>
        <mxCell id="PmQbQZa9qMLqMzXBqfcJ-108" style="edgeStyle=orthogonalEdgeStyle;rounded=0;orthogonalLoop=1;jettySize=auto;html=1;exitX=1;exitY=0.5;exitDx=0;exitDy=0;entryX=0.25;entryY=1;entryDx=0;entryDy=0;endArrow=none;endFill=0;" parent="1" source="PmQbQZa9qMLqMzXBqfcJ-104" target="PmQbQZa9qMLqMzXBqfcJ-64" edge="1">
          <mxGeometry relative="1" as="geometry" />
        </mxCell>
        <mxCell id="PmQbQZa9qMLqMzXBqfcJ-104" value="&lt;span style=&quot;font-size: 13px;&quot;&gt;Degree&lt;/span&gt;" style="ellipse;whiteSpace=wrap;html=1;" parent="1" vertex="1">
          <mxGeometry x="20" y="258.5" width="66" height="40" as="geometry" />
        </mxCell>
        <mxCell id="PmQbQZa9qMLqMzXBqfcJ-106" style="edgeStyle=orthogonalEdgeStyle;rounded=0;orthogonalLoop=1;jettySize=auto;html=1;exitX=1;exitY=0.5;exitDx=0;exitDy=0;entryX=0;entryY=0.25;entryDx=0;entryDy=0;endArrow=none;endFill=0;" parent="1" source="PmQbQZa9qMLqMzXBqfcJ-105" target="PmQbQZa9qMLqMzXBqfcJ-64" edge="1">
          <mxGeometry relative="1" as="geometry" />
        </mxCell>
        <mxCell id="PmQbQZa9qMLqMzXBqfcJ-105" value="&lt;span style=&quot;font-size: 13px;&quot;&gt;Body&lt;/span&gt;" style="ellipse;whiteSpace=wrap;html=1;" parent="1" vertex="1">
          <mxGeometry x="10" y="145" width="66" height="40" as="geometry" />
        </mxCell>
        <mxCell id="idugPT6sOUHTakiWyFXu-37" style="edgeStyle=orthogonalEdgeStyle;rounded=0;orthogonalLoop=1;jettySize=auto;html=1;exitX=1;exitY=0;exitDx=0;exitDy=0;entryX=0.5;entryY=1;entryDx=0;entryDy=0;endArrow=none;endFill=0;" parent="1" source="PmQbQZa9qMLqMzXBqfcJ-109" target="idugPT6sOUHTakiWyFXu-36" edge="1">
          <mxGeometry relative="1" as="geometry" />
        </mxCell>
        <mxCell id="PmQbQZa9qMLqMzXBqfcJ-109" value="Choices" style="rounded=0;whiteSpace=wrap;html=1;" parent="1" vertex="1">
          <mxGeometry x="121.5" y="-129" width="120" height="60" as="geometry" />
        </mxCell>
        <mxCell id="PmQbQZa9qMLqMzXBqfcJ-110" value="Has" style="rhombus;whiteSpace=wrap;html=1;" parent="1" vertex="1">
          <mxGeometry x="161.5" y="-31" width="80" height="80" as="geometry" />
        </mxCell>
        <mxCell id="PmQbQZa9qMLqMzXBqfcJ-111" style="edgeStyle=orthogonalEdgeStyle;rounded=0;orthogonalLoop=1;jettySize=auto;html=1;exitX=0.5;exitY=1;exitDx=0;exitDy=0;entryX=0.894;entryY=0.004;entryDx=0;entryDy=0;entryPerimeter=0;endArrow=none;endFill=0;shape=link;" parent="1" source="PmQbQZa9qMLqMzXBqfcJ-110" target="PmQbQZa9qMLqMzXBqfcJ-64" edge="1">
          <mxGeometry relative="1" as="geometry" />
        </mxCell>
        <mxCell id="PmQbQZa9qMLqMzXBqfcJ-112" style="edgeStyle=orthogonalEdgeStyle;rounded=0;orthogonalLoop=1;jettySize=auto;html=1;exitX=0.5;exitY=0;exitDx=0;exitDy=0;entryX=0.654;entryY=0.937;entryDx=0;entryDy=0;entryPerimeter=0;endArrow=none;endFill=0;shape=link;" parent="1" source="PmQbQZa9qMLqMzXBqfcJ-110" target="PmQbQZa9qMLqMzXBqfcJ-109" edge="1">
          <mxGeometry relative="1" as="geometry" />
        </mxCell>
        <mxCell id="PmQbQZa9qMLqMzXBqfcJ-113" value="1" style="text;html=1;align=center;verticalAlign=middle;resizable=0;points=[];autosize=1;strokeColor=none;fillColor=none;" parent="1" vertex="1">
          <mxGeometry x="175" y="42" width="25" height="26" as="geometry" />
        </mxCell>
        <mxCell id="PmQbQZa9qMLqMzXBqfcJ-114" value="M" style="text;html=1;align=center;verticalAlign=middle;resizable=0;points=[];autosize=1;strokeColor=none;fillColor=none;" parent="1" vertex="1">
          <mxGeometry x="170" y="-44" width="28" height="26" as="geometry" />
        </mxCell>
        <mxCell id="PmQbQZa9qMLqMzXBqfcJ-124" style="edgeStyle=orthogonalEdgeStyle;rounded=0;orthogonalLoop=1;jettySize=auto;html=1;exitX=0.5;exitY=1;exitDx=0;exitDy=0;entryX=0.5;entryY=0;entryDx=0;entryDy=0;endArrow=none;endFill=0;" parent="1" source="PmQbQZa9qMLqMzXBqfcJ-116" target="PmQbQZa9qMLqMzXBqfcJ-109" edge="1">
          <mxGeometry relative="1" as="geometry" />
        </mxCell>
        <mxCell id="PmQbQZa9qMLqMzXBqfcJ-116" value="&lt;span style=&quot;font-size: 13px;&quot;&gt;Is_Correct&lt;/span&gt;" style="ellipse;whiteSpace=wrap;html=1;" parent="1" vertex="1">
          <mxGeometry x="142" y="-200" width="66" height="40" as="geometry" />
        </mxCell>
        <mxCell id="PmQbQZa9qMLqMzXBqfcJ-120" value="&lt;span style=&quot;font-size: 13px;&quot;&gt;Body&lt;/span&gt;" style="ellipse;whiteSpace=wrap;html=1;" parent="1" vertex="1">
          <mxGeometry x="60" y="-202" width="66" height="40" as="geometry" />
        </mxCell>
        <mxCell id="PmQbQZa9qMLqMzXBqfcJ-125" style="edgeStyle=orthogonalEdgeStyle;rounded=0;orthogonalLoop=1;jettySize=auto;html=1;exitX=1;exitY=1;exitDx=0;exitDy=0;entryX=0.15;entryY=0.078;entryDx=0;entryDy=0;entryPerimeter=0;endArrow=none;endFill=0;" parent="1" source="PmQbQZa9qMLqMzXBqfcJ-120" target="PmQbQZa9qMLqMzXBqfcJ-109" edge="1">
          <mxGeometry relative="1" as="geometry" />
        </mxCell>
        <mxCell id="p9Ln73T7l0obJPTR8ibc-2" style="edgeStyle=orthogonalEdgeStyle;rounded=0;orthogonalLoop=1;jettySize=auto;html=1;exitX=0.617;exitY=0.809;exitDx=0;exitDy=0;entryX=0.5;entryY=0;entryDx=0;entryDy=0;endArrow=none;endFill=0;shape=link;exitPerimeter=0;" parent="1" source="p9Ln73T7l0obJPTR8ibc-1" edge="1">
          <mxGeometry relative="1" as="geometry">
            <mxPoint x="609.5" y="78" as="sourcePoint" />
            <mxPoint x="550.4999999999998" y="238" as="targetPoint" />
            <Array as="points">
              <mxPoint x="609" y="68" />
              <mxPoint x="609" y="158" />
              <mxPoint x="551" y="158" />
            </Array>
          </mxGeometry>
        </mxCell>
        <mxCell id="p9Ln73T7l0obJPTR8ibc-1" value="Works For" style="rhombus;whiteSpace=wrap;html=1;" parent="1" vertex="1">
          <mxGeometry x="557" y="3" width="80" height="80" as="geometry" />
        </mxCell>
        <mxCell id="p9Ln73T7l0obJPTR8ibc-4" style="edgeStyle=orthogonalEdgeStyle;rounded=0;orthogonalLoop=1;jettySize=auto;html=1;exitX=0.5;exitY=0;exitDx=0;exitDy=0;entryX=0;entryY=0;entryDx=0;entryDy=0;endArrow=none;endFill=0;shape=link;width=-4.117647058823529;" parent="1" source="p9Ln73T7l0obJPTR8ibc-1" target="PmQbQZa9qMLqMzXBqfcJ-22" edge="1">
          <mxGeometry relative="1" as="geometry" />
        </mxCell>
        <mxCell id="p9Ln73T7l0obJPTR8ibc-5" value="Located" style="rhombus;whiteSpace=wrap;html=1;" parent="1" vertex="1">
          <mxGeometry x="945.5" y="365" width="80" height="80" as="geometry" />
        </mxCell>
        <mxCell id="p9Ln73T7l0obJPTR8ibc-9" value="M" style="text;html=1;align=center;verticalAlign=middle;resizable=0;points=[];autosize=1;strokeColor=none;fillColor=none;" parent="1" vertex="1">
          <mxGeometry x="931" y="411.75" width="28" height="26" as="geometry" />
        </mxCell>
        <mxCell id="p9Ln73T7l0obJPTR8ibc-10" value="1" style="text;html=1;align=center;verticalAlign=middle;resizable=0;points=[];autosize=1;strokeColor=none;fillColor=none;" parent="1" vertex="1">
          <mxGeometry x="982" y="347" width="25" height="26" as="geometry" />
        </mxCell>
        <mxCell id="p9Ln73T7l0obJPTR8ibc-12" value="M" style="text;html=1;align=center;verticalAlign=middle;resizable=0;points=[];autosize=1;strokeColor=none;fillColor=none;" parent="1" vertex="1">
          <mxGeometry x="564" y="71" width="28" height="26" as="geometry" />
        </mxCell>
        <mxCell id="p9Ln73T7l0obJPTR8ibc-13" value="1" style="text;html=1;align=center;verticalAlign=middle;resizable=0;points=[];autosize=1;strokeColor=none;fillColor=none;" parent="1" vertex="1">
          <mxGeometry x="560" y="-26" width="25" height="26" as="geometry" />
        </mxCell>
        <mxCell id="p9Ln73T7l0obJPTR8ibc-23" value="Assigned to" style="rhombus;whiteSpace=wrap;html=1;" parent="1" vertex="1">
          <mxGeometry x="318" y="51.5" width="80" height="80" as="geometry" />
        </mxCell>
        <mxCell id="p9Ln73T7l0obJPTR8ibc-25" style="edgeStyle=orthogonalEdgeStyle;rounded=0;orthogonalLoop=1;jettySize=auto;html=1;exitX=0.5;exitY=1;exitDx=0;exitDy=0;entryX=0.852;entryY=1.009;entryDx=0;entryDy=0;entryPerimeter=0;endArrow=none;endFill=0;shape=link;" parent="1" source="p9Ln73T7l0obJPTR8ibc-23" target="fExjuZPJxnfh54GCOMQb-4" edge="1">
          <mxGeometry relative="1" as="geometry" />
        </mxCell>
        <mxCell id="jXS0DLB_lHR7ojzFCZE1-5" value="M" style="text;html=1;align=center;verticalAlign=middle;resizable=0;points=[];autosize=1;strokeColor=none;fillColor=none;" parent="1" vertex="1">
          <mxGeometry x="327" y="121" width="28" height="26" as="geometry" />
        </mxCell>
        <mxCell id="jXS0DLB_lHR7ojzFCZE1-6" value="1" style="text;html=1;align=center;verticalAlign=middle;resizable=0;points=[];autosize=1;strokeColor=none;fillColor=none;" parent="1" vertex="1">
          <mxGeometry x="396" y="61" width="25" height="26" as="geometry" />
        </mxCell>
        <mxCell id="jXS0DLB_lHR7ojzFCZE1-7" value="&lt;u&gt;Answer_ch_ID&lt;/u&gt;" style="ellipse;whiteSpace=wrap;html=1;" parent="1" vertex="1">
          <mxGeometry x="585" y="578" width="90" height="68" as="geometry" />
        </mxCell>
        <mxCell id="R1UCZFFHa46aQCxSnfIE-9" style="edgeStyle=orthogonalEdgeStyle;rounded=0;orthogonalLoop=1;jettySize=auto;html=1;exitX=0;exitY=1;exitDx=0;exitDy=0;entryX=0;entryY=0.5;entryDx=0;entryDy=0;endArrow=none;endFill=0;shape=link;" parent="1" source="jXS0DLB_lHR7ojzFCZE1-9" target="jXS0DLB_lHR7ojzFCZE1-14" edge="1">
          <mxGeometry relative="1" as="geometry" />
        </mxCell>
        <mxCell id="jXS0DLB_lHR7ojzFCZE1-9" value="Based at" style="rhombus;whiteSpace=wrap;html=1;" parent="1" vertex="1">
          <mxGeometry x="680" y="127" width="68" height="70" as="geometry" />
        </mxCell>
        <mxCell id="jXS0DLB_lHR7ojzFCZE1-10" value="&lt;font style=&quot;font-size: 13px;&quot;&gt;Ins_Name&lt;/font&gt;" style="ellipse;whiteSpace=wrap;html=1;" parent="1" vertex="1">
          <mxGeometry x="509" y="303.5" width="70" height="48" as="geometry" />
        </mxCell>
        <mxCell id="jXS0DLB_lHR7ojzFCZE1-27" style="edgeStyle=orthogonalEdgeStyle;rounded=0;orthogonalLoop=1;jettySize=auto;html=1;exitX=0.5;exitY=1;exitDx=0;exitDy=0;entryX=0.5;entryY=0;entryDx=0;entryDy=0;endArrow=none;endFill=0;" parent="1" source="jXS0DLB_lHR7ojzFCZE1-14" target="jXS0DLB_lHR7ojzFCZE1-26" edge="1">
          <mxGeometry relative="1" as="geometry" />
        </mxCell>
        <mxCell id="jXS0DLB_lHR7ojzFCZE1-33" style="edgeStyle=orthogonalEdgeStyle;rounded=0;orthogonalLoop=1;jettySize=auto;html=1;exitX=1;exitY=0.5;exitDx=0;exitDy=0;entryX=0;entryY=0;entryDx=0;entryDy=0;endArrow=none;endFill=0;" parent="1" source="jXS0DLB_lHR7ojzFCZE1-14" target="jXS0DLB_lHR7ojzFCZE1-28" edge="1">
          <mxGeometry relative="1" as="geometry" />
        </mxCell>
        <mxCell id="jXS0DLB_lHR7ojzFCZE1-41" style="edgeStyle=orthogonalEdgeStyle;rounded=0;orthogonalLoop=1;jettySize=auto;html=1;exitX=1;exitY=0.75;exitDx=0;exitDy=0;entryX=0;entryY=0.5;entryDx=0;entryDy=0;endArrow=none;endFill=0;" parent="1" source="jXS0DLB_lHR7ojzFCZE1-14" target="jXS0DLB_lHR7ojzFCZE1-39" edge="1">
          <mxGeometry relative="1" as="geometry" />
        </mxCell>
        <mxCell id="idugPT6sOUHTakiWyFXu-12" style="edgeStyle=orthogonalEdgeStyle;rounded=0;orthogonalLoop=1;jettySize=auto;html=1;exitX=0;exitY=1;exitDx=0;exitDy=0;entryX=1;entryY=0.5;entryDx=0;entryDy=0;endArrow=none;endFill=0;shape=link;" parent="1" source="jXS0DLB_lHR7ojzFCZE1-14" target="idugPT6sOUHTakiWyFXu-11" edge="1">
          <mxGeometry relative="1" as="geometry" />
        </mxCell>
        <mxCell id="jXS0DLB_lHR7ojzFCZE1-14" value="intake" style="rounded=0;whiteSpace=wrap;html=1;" parent="1" vertex="1">
          <mxGeometry x="662" y="342.5" width="81" height="47" as="geometry" />
        </mxCell>
        <mxCell id="jXS0DLB_lHR7ojzFCZE1-23" value="M" style="text;html=1;align=center;verticalAlign=middle;resizable=0;points=[];autosize=1;strokeColor=none;fillColor=none;" parent="1" vertex="1">
          <mxGeometry x="658" y="131" width="28" height="26" as="geometry" />
        </mxCell>
        <mxCell id="jXS0DLB_lHR7ojzFCZE1-24" value="M" style="text;html=1;align=center;verticalAlign=middle;resizable=0;points=[];autosize=1;strokeColor=none;fillColor=none;" parent="1" vertex="1">
          <mxGeometry x="737" y="128" width="28" height="26" as="geometry" />
        </mxCell>
        <mxCell id="jXS0DLB_lHR7ojzFCZE1-26" value="&lt;span style=&quot;font-size: 13px;&quot;&gt;Year&lt;/span&gt;" style="ellipse;whiteSpace=wrap;html=1;" parent="1" vertex="1">
          <mxGeometry x="689" y="409.75" width="59" height="30" as="geometry" />
        </mxCell>
        <mxCell id="jXS0DLB_lHR7ojzFCZE1-28" value="&lt;span style=&quot;font-size: 13px;&quot;&gt;&lt;u&gt;ID&lt;/u&gt;&lt;/span&gt;" style="ellipse;whiteSpace=wrap;html=1;" parent="1" vertex="1">
          <mxGeometry x="771" y="341" width="59" height="30" as="geometry" />
        </mxCell>
        <mxCell id="jXS0DLB_lHR7ojzFCZE1-31" value="M" style="text;html=1;align=center;verticalAlign=middle;resizable=0;points=[];autosize=1;strokeColor=none;fillColor=none;" parent="1" vertex="1">
          <mxGeometry x="702" y="291" width="28" height="26" as="geometry" />
        </mxCell>
        <mxCell id="jXS0DLB_lHR7ojzFCZE1-35" value="&lt;span style=&quot;font-size: 13px;&quot;&gt;St_Name&lt;/span&gt;" style="ellipse;whiteSpace=wrap;html=1;" parent="1" vertex="1">
          <mxGeometry x="858" y="573" width="62" height="41" as="geometry" />
        </mxCell>
        <mxCell id="jXS0DLB_lHR7ojzFCZE1-37" value="&lt;span style=&quot;font-size: 13px;&quot;&gt;&lt;u&gt;St_ID&lt;/u&gt;&lt;/span&gt;" style="ellipse;whiteSpace=wrap;html=1;" parent="1" vertex="1">
          <mxGeometry x="797" y="579" width="57" height="35" as="geometry" />
        </mxCell>
        <mxCell id="jXS0DLB_lHR7ojzFCZE1-40" style="edgeStyle=orthogonalEdgeStyle;rounded=0;orthogonalLoop=1;jettySize=auto;html=1;exitX=0.5;exitY=1;exitDx=0;exitDy=0;entryX=0.25;entryY=0;entryDx=0;entryDy=0;endArrow=none;endFill=0;shape=link;" parent="1" source="jXS0DLB_lHR7ojzFCZE1-39" target="fExjuZPJxnfh54GCOMQb-2" edge="1">
          <mxGeometry relative="1" as="geometry" />
        </mxCell>
        <mxCell id="jXS0DLB_lHR7ojzFCZE1-39" value="Assigned to" style="rhombus;whiteSpace=wrap;html=1;" parent="1" vertex="1">
          <mxGeometry x="813" y="375" width="75" height="61" as="geometry" />
        </mxCell>
        <mxCell id="jXS0DLB_lHR7ojzFCZE1-42" value="1" style="text;html=1;align=center;verticalAlign=middle;resizable=0;points=[];autosize=1;strokeColor=none;fillColor=none;" parent="1" vertex="1">
          <mxGeometry x="795" y="371" width="25" height="26" as="geometry" />
        </mxCell>
        <mxCell id="jXS0DLB_lHR7ojzFCZE1-43" value="M" style="text;html=1;align=center;verticalAlign=middle;resizable=0;points=[];autosize=1;strokeColor=none;fillColor=none;" parent="1" vertex="1">
          <mxGeometry x="865" y="423" width="28" height="26" as="geometry" />
        </mxCell>
        <mxCell id="jXS0DLB_lHR7ojzFCZE1-46" style="edgeStyle=orthogonalEdgeStyle;rounded=0;orthogonalLoop=1;jettySize=auto;html=1;exitX=0;exitY=0.5;exitDx=0;exitDy=0;endArrow=none;endFill=0;shape=link;" parent="1" source="jXS0DLB_lHR7ojzFCZE1-45" edge="1">
          <mxGeometry relative="1" as="geometry">
            <mxPoint x="286.38461538461524" y="483.1282207782451" as="targetPoint" />
            <Array as="points">
              <mxPoint x="286" y="673" />
            </Array>
          </mxGeometry>
        </mxCell>
        <mxCell id="jXS0DLB_lHR7ojzFCZE1-45" value="Has" style="rhombus;whiteSpace=wrap;html=1;" parent="1" vertex="1">
          <mxGeometry x="467" y="600" width="80" height="80" as="geometry" />
        </mxCell>
        <mxCell id="jXS0DLB_lHR7ojzFCZE1-48" value="M" style="text;html=1;align=center;verticalAlign=middle;resizable=0;points=[];autosize=1;strokeColor=none;fillColor=none;" parent="1" vertex="1">
          <mxGeometry x="417" y="633" width="28" height="26" as="geometry" />
        </mxCell>
        <mxCell id="R1UCZFFHa46aQCxSnfIE-4" style="edgeStyle=orthogonalEdgeStyle;rounded=0;orthogonalLoop=1;jettySize=auto;html=1;exitX=1;exitY=0.5;exitDx=0;exitDy=0;entryX=0.5;entryY=0;entryDx=0;entryDy=0;endArrow=none;endFill=0;shape=link;" parent="1" source="R1UCZFFHa46aQCxSnfIE-1" target="fExjuZPJxnfh54GCOMQb-9" edge="1">
          <mxGeometry relative="1" as="geometry" />
        </mxCell>
        <mxCell id="R1UCZFFHa46aQCxSnfIE-6" style="edgeStyle=orthogonalEdgeStyle;rounded=0;orthogonalLoop=1;jettySize=auto;html=1;exitX=0.5;exitY=1;exitDx=0;exitDy=0;entryX=1;entryY=0.25;entryDx=0;entryDy=0;endArrow=none;endFill=0;shape=link;" parent="1" source="R1UCZFFHa46aQCxSnfIE-1" target="PmQbQZa9qMLqMzXBqfcJ-64" edge="1">
          <mxGeometry relative="1" as="geometry" />
        </mxCell>
        <mxCell id="R1UCZFFHa46aQCxSnfIE-1" value="IS Added" style="rhombus;whiteSpace=wrap;html=1;" parent="1" vertex="1">
          <mxGeometry x="378" y="-106" width="80" height="80" as="geometry" />
        </mxCell>
        <mxCell id="R1UCZFFHa46aQCxSnfIE-7" value="1" style="text;html=1;align=center;verticalAlign=middle;resizable=0;points=[];autosize=1;strokeColor=none;fillColor=none;" parent="1" vertex="1">
          <mxGeometry x="460" y="-117" width="25" height="26" as="geometry" />
        </mxCell>
        <mxCell id="R1UCZFFHa46aQCxSnfIE-8" value="M" style="text;html=1;align=center;verticalAlign=middle;resizable=0;points=[];autosize=1;strokeColor=none;fillColor=none;" parent="1" vertex="1">
          <mxGeometry x="379" y="-33" width="28" height="26" as="geometry" />
        </mxCell>
        <mxCell id="R1UCZFFHa46aQCxSnfIE-10" value="M" style="text;html=1;align=center;verticalAlign=middle;resizable=0;points=[];autosize=1;strokeColor=none;fillColor=none;" parent="1" vertex="1">
          <mxGeometry x="663" y="182" width="28" height="26" as="geometry" />
        </mxCell>
        <mxCell id="R1UCZFFHa46aQCxSnfIE-11" value="1" style="text;html=1;align=center;verticalAlign=middle;resizable=0;points=[];autosize=1;strokeColor=none;fillColor=none;" parent="1" vertex="1">
          <mxGeometry x="525" y="665" width="25" height="26" as="geometry" />
        </mxCell>
        <mxCell id="idugPT6sOUHTakiWyFXu-1" value="Has" style="rhombus;whiteSpace=wrap;html=1;" parent="1" vertex="1">
          <mxGeometry x="1025.5" y="150" width="68" height="66" as="geometry" />
        </mxCell>
        <mxCell id="idugPT6sOUHTakiWyFXu-4" value="M" style="text;html=1;align=center;verticalAlign=middle;resizable=0;points=[];autosize=1;strokeColor=none;fillColor=none;" parent="1" vertex="1">
          <mxGeometry x="1025.5" y="124" width="28" height="26" as="geometry" />
        </mxCell>
        <mxCell id="idugPT6sOUHTakiWyFXu-5" value="M" style="text;html=1;align=center;verticalAlign=middle;resizable=0;points=[];autosize=1;strokeColor=none;fillColor=none;" parent="1" vertex="1">
          <mxGeometry x="1086" y="147" width="28" height="26" as="geometry" />
        </mxCell>
        <mxCell id="idugPT6sOUHTakiWyFXu-7" value="&lt;span style=&quot;font-size: 13px;&quot;&gt;UserName&lt;/span&gt;" style="ellipse;whiteSpace=wrap;html=1;direction=south;" parent="1" vertex="1">
          <mxGeometry x="963.87" y="549" width="80.13" height="67" as="geometry" />
        </mxCell>
        <mxCell id="idugPT6sOUHTakiWyFXu-9" value="&lt;span style=&quot;font-size: 13px;&quot;&gt;UserName&lt;/span&gt;" style="ellipse;whiteSpace=wrap;html=1;" parent="1" vertex="1">
          <mxGeometry x="443" y="317" width="68" height="48" as="geometry" />
        </mxCell>
        <mxCell id="idugPT6sOUHTakiWyFXu-11" value="Include" style="rhombus;whiteSpace=wrap;html=1;" parent="1" vertex="1">
          <mxGeometry x="445" y="415" width="80" height="80" as="geometry" />
        </mxCell>
        <mxCell id="idugPT6sOUHTakiWyFXu-14" value="1" style="text;html=1;align=center;verticalAlign=middle;resizable=0;points=[];autosize=1;strokeColor=none;fillColor=none;" parent="1" vertex="1">
          <mxGeometry x="519" y="424" width="25" height="26" as="geometry" />
        </mxCell>
        <mxCell id="idugPT6sOUHTakiWyFXu-15" value="M" style="text;html=1;align=center;verticalAlign=middle;resizable=0;points=[];autosize=1;strokeColor=none;fillColor=none;" parent="1" vertex="1">
          <mxGeometry x="418" y="420.5" width="28" height="26" as="geometry" />
        </mxCell>
        <mxCell id="idugPT6sOUHTakiWyFXu-16" value="Make" style="rhombus;whiteSpace=wrap;html=1;" parent="1" vertex="1">
          <mxGeometry x="76" y="643" width="80" height="80" as="geometry" />
        </mxCell>
        <mxCell id="idugPT6sOUHTakiWyFXu-20" value="1" style="text;html=1;align=center;verticalAlign=middle;resizable=0;points=[];autosize=1;strokeColor=none;fillColor=none;" parent="1" vertex="1">
          <mxGeometry x="50" y="696" width="25" height="26" as="geometry" />
        </mxCell>
        <mxCell id="idugPT6sOUHTakiWyFXu-21" value="M" style="text;html=1;align=center;verticalAlign=middle;resizable=0;points=[];autosize=1;strokeColor=none;fillColor=none;" parent="1" vertex="1">
          <mxGeometry x="129" y="620" width="28" height="26" as="geometry" />
        </mxCell>
        <mxCell id="idugPT6sOUHTakiWyFXu-28" style="edgeStyle=orthogonalEdgeStyle;rounded=0;orthogonalLoop=1;jettySize=auto;html=1;exitX=1;exitY=0.5;exitDx=0;exitDy=0;endArrow=none;endFill=0;shape=link;" parent="1" source="idugPT6sOUHTakiWyFXu-22" edge="1">
          <mxGeometry relative="1" as="geometry">
            <mxPoint x="1220" y="311.44445292154955" as="targetPoint" />
          </mxGeometry>
        </mxCell>
        <mxCell id="idugPT6sOUHTakiWyFXu-22" value="Has" style="rhombus;whiteSpace=wrap;html=1;" parent="1" vertex="1">
          <mxGeometry x="903" y="802" width="80" height="80" as="geometry" />
        </mxCell>
        <mxCell id="idugPT6sOUHTakiWyFXu-30" value="1" style="text;html=1;align=center;verticalAlign=middle;resizable=0;points=[];autosize=1;strokeColor=none;fillColor=none;" parent="1" vertex="1">
          <mxGeometry x="981" y="794" width="25" height="26" as="geometry" />
        </mxCell>
        <mxCell id="idugPT6sOUHTakiWyFXu-31" value="M" style="text;html=1;align=center;verticalAlign=middle;resizable=0;points=[];autosize=1;strokeColor=none;fillColor=none;" parent="1" vertex="1">
          <mxGeometry x="871" y="861" width="28" height="26" as="geometry" />
        </mxCell>
        <mxCell id="idugPT6sOUHTakiWyFXu-35" value="" style="edgeStyle=orthogonalEdgeStyle;rounded=0;orthogonalLoop=1;jettySize=auto;html=1;exitX=0.75;exitY=1;exitDx=0;exitDy=0;endArrow=none;endFill=0;" parent="1" source="fExjuZPJxnfh54GCOMQb-4" target="idugPT6sOUHTakiWyFXu-34" edge="1">
          <mxGeometry relative="1" as="geometry">
            <mxPoint x="354.44447835286473" y="620.3333333333335" as="targetPoint" />
            <mxPoint x="293" y="480" as="sourcePoint" />
          </mxGeometry>
        </mxCell>
        <mxCell id="idugPT6sOUHTakiWyFXu-34" value="&lt;span style=&quot;font-size: 13px;&quot;&gt;Status&lt;/span&gt;" style="ellipse;whiteSpace=wrap;html=1;" parent="1" vertex="1">
          <mxGeometry x="333" y="605" width="50" height="43" as="geometry" />
        </mxCell>
        <mxCell id="idugPT6sOUHTakiWyFXu-36" value="&lt;span style=&quot;font-size: 13px;&quot;&gt;&lt;u&gt;Ch_ID&lt;/u&gt;&lt;/span&gt;" style="ellipse;whiteSpace=wrap;html=1;" parent="1" vertex="1">
          <mxGeometry x="229" y="-188" width="66" height="40" as="geometry" />
        </mxCell>
        <mxCell id="OwGAfwipVpSHfUCCJN2n-2" style="edgeStyle=orthogonalEdgeStyle;rounded=0;orthogonalLoop=1;jettySize=auto;html=1;exitX=0.5;exitY=1;exitDx=0;exitDy=0;entryX=0.5;entryY=0;entryDx=0;entryDy=0;endArrow=none;endFill=0;" edge="1" parent="1" source="idugPT6sOUHTakiWyFXu-40" target="OwGAfwipVpSHfUCCJN2n-1">
          <mxGeometry relative="1" as="geometry" />
        </mxCell>
        <mxCell id="idugPT6sOUHTakiWyFXu-40" value="Has" style="rhombus;whiteSpace=wrap;html=1;" parent="1" vertex="1">
          <mxGeometry x="-180" y="415" width="80" height="80" as="geometry" />
        </mxCell>
        <mxCell id="idugPT6sOUHTakiWyFXu-44" value="M" style="text;html=1;align=center;verticalAlign=middle;resizable=0;points=[];autosize=1;strokeColor=none;fillColor=none;" parent="1" vertex="1">
          <mxGeometry x="-201" y="411.75" width="28" height="26" as="geometry" />
        </mxCell>
        <mxCell id="idugPT6sOUHTakiWyFXu-45" value="M" style="text;html=1;align=center;verticalAlign=middle;resizable=0;points=[];autosize=1;strokeColor=none;fillColor=none;" parent="1" vertex="1">
          <mxGeometry x="-96" y="420.5" width="28" height="26" as="geometry" />
        </mxCell>
        <mxCell id="idugPT6sOUHTakiWyFXu-68" style="edgeStyle=orthogonalEdgeStyle;rounded=0;orthogonalLoop=1;jettySize=auto;html=1;exitX=1;exitY=0;exitDx=0;exitDy=0;entryX=0;entryY=1;entryDx=0;entryDy=0;endArrow=none;endFill=0;" parent="1" source="idugPT6sOUHTakiWyFXu-48" target="idugPT6sOUHTakiWyFXu-61" edge="1">
          <mxGeometry relative="1" as="geometry" />
        </mxCell>
        <mxCell id="idugPT6sOUHTakiWyFXu-48" value="Corrective_Date" style="ellipse;whiteSpace=wrap;html=1;" parent="1" vertex="1">
          <mxGeometry x="533" y="1183" width="111" height="64" as="geometry" />
        </mxCell>
        <mxCell id="idugPT6sOUHTakiWyFXu-53" value="End_time" style="ellipse;whiteSpace=wrap;html=1;" parent="1" vertex="1">
          <mxGeometry x="686" y="1193" width="111" height="64" as="geometry" />
        </mxCell>
        <mxCell id="idugPT6sOUHTakiWyFXu-59" style="edgeStyle=orthogonalEdgeStyle;rounded=0;orthogonalLoop=1;jettySize=auto;html=1;exitX=0;exitY=0.5;exitDx=0;exitDy=0;endArrow=none;endFill=0;entryX=1;entryY=0;entryDx=0;entryDy=0;" parent="1" source="idugPT6sOUHTakiWyFXu-61" target="idugPT6sOUHTakiWyFXu-65" edge="1">
          <mxGeometry relative="1" as="geometry">
            <mxPoint x="688.666666666667" y="1043.3333333333335" as="targetPoint" />
          </mxGeometry>
        </mxCell>
        <mxCell id="idugPT6sOUHTakiWyFXu-60" style="edgeStyle=orthogonalEdgeStyle;rounded=0;orthogonalLoop=1;jettySize=auto;html=1;exitX=1;exitY=0.5;exitDx=0;exitDy=0;entryX=0;entryY=0.5;entryDx=0;entryDy=0;endArrow=none;endFill=0;" parent="1" source="idugPT6sOUHTakiWyFXu-61" target="idugPT6sOUHTakiWyFXu-66" edge="1">
          <mxGeometry relative="1" as="geometry" />
        </mxCell>
        <mxCell id="OwGAfwipVpSHfUCCJN2n-3" style="edgeStyle=orthogonalEdgeStyle;rounded=0;orthogonalLoop=1;jettySize=auto;html=1;exitX=0;exitY=0;exitDx=0;exitDy=0;entryX=1;entryY=0.5;entryDx=0;entryDy=0;endArrow=none;endFill=0;shape=link;" edge="1" parent="1" source="idugPT6sOUHTakiWyFXu-61" target="idugPT6sOUHTakiWyFXu-69">
          <mxGeometry relative="1" as="geometry" />
        </mxCell>
        <mxCell id="OwGAfwipVpSHfUCCJN2n-8" style="edgeStyle=orthogonalEdgeStyle;rounded=0;orthogonalLoop=1;jettySize=auto;html=1;exitX=1;exitY=0;exitDx=0;exitDy=0;entryX=0;entryY=0.5;entryDx=0;entryDy=0;endArrow=none;endFill=0;shape=link;" edge="1" parent="1" source="idugPT6sOUHTakiWyFXu-61" target="OwGAfwipVpSHfUCCJN2n-6">
          <mxGeometry relative="1" as="geometry" />
        </mxCell>
        <mxCell id="idugPT6sOUHTakiWyFXu-61" value="Exam_Corrective" style="rounded=0;whiteSpace=wrap;html=1;" parent="1" vertex="1">
          <mxGeometry x="701" y="1018" width="124" height="49" as="geometry" />
        </mxCell>
        <mxCell id="idugPT6sOUHTakiWyFXu-62" value="&lt;u&gt;Corrective_ID&lt;/u&gt;" style="ellipse;whiteSpace=wrap;html=1;" parent="1" vertex="1">
          <mxGeometry x="764" y="1109" width="83" height="74" as="geometry" />
        </mxCell>
        <mxCell id="idugPT6sOUHTakiWyFXu-63" style="edgeStyle=orthogonalEdgeStyle;rounded=0;orthogonalLoop=1;jettySize=auto;html=1;exitX=0.25;exitY=1;exitDx=0;exitDy=0;entryX=0.5;entryY=0;entryDx=0;entryDy=0;endArrow=none;endFill=0;" parent="1" source="idugPT6sOUHTakiWyFXu-61" target="idugPT6sOUHTakiWyFXu-53" edge="1">
          <mxGeometry relative="1" as="geometry">
            <mxPoint x="719" y="1104" as="targetPoint" />
          </mxGeometry>
        </mxCell>
        <mxCell id="idugPT6sOUHTakiWyFXu-64" style="edgeStyle=orthogonalEdgeStyle;rounded=0;orthogonalLoop=1;jettySize=auto;html=1;exitX=0.75;exitY=1;exitDx=0;exitDy=0;entryX=0.303;entryY=0.099;entryDx=0;entryDy=0;entryPerimeter=0;endArrow=none;endFill=0;" parent="1" source="idugPT6sOUHTakiWyFXu-61" target="idugPT6sOUHTakiWyFXu-62" edge="1">
          <mxGeometry relative="1" as="geometry" />
        </mxCell>
        <mxCell id="idugPT6sOUHTakiWyFXu-65" value="Start_Time" style="ellipse;whiteSpace=wrap;html=1;" parent="1" vertex="1">
          <mxGeometry x="579" y="1063" width="111" height="64" as="geometry" />
        </mxCell>
        <mxCell id="idugPT6sOUHTakiWyFXu-66" value="Is_Completed" style="ellipse;whiteSpace=wrap;html=1;" parent="1" vertex="1">
          <mxGeometry x="871" y="1065" width="111" height="64" as="geometry" />
        </mxCell>
        <mxCell id="idugPT6sOUHTakiWyFXu-69" value="Take" style="rhombus;whiteSpace=wrap;html=1;" parent="1" vertex="1">
          <mxGeometry x="429" y="958" width="80" height="80" as="geometry" />
        </mxCell>
        <mxCell id="idugPT6sOUHTakiWyFXu-79" value="Answer_TF" style="ellipse;whiteSpace=wrap;html=1;" parent="1" vertex="1">
          <mxGeometry x="679.5" y="555" width="73" height="55" as="geometry" />
        </mxCell>
        <mxCell id="idugPT6sOUHTakiWyFXu-81" value="Score" style="ellipse;whiteSpace=wrap;html=1;" parent="1" vertex="1">
          <mxGeometry x="670" y="470" width="57" height="55" as="geometry" />
        </mxCell>
        <mxCell id="idugPT6sOUHTakiWyFXu-82" style="edgeStyle=orthogonalEdgeStyle;rounded=0;orthogonalLoop=1;jettySize=auto;html=1;exitX=0;exitY=0.5;exitDx=0;exitDy=0;entryX=-0.135;entryY=0.761;entryDx=0;entryDy=0;entryPerimeter=0;endArrow=none;endFill=0;" parent="1" source="idugPT6sOUHTakiWyFXu-81" target="PmQbQZa9qMLqMzXBqfcJ-80" edge="1">
          <mxGeometry relative="1" as="geometry" />
        </mxCell>
        <mxCell id="OwGAfwipVpSHfUCCJN2n-1" value="Question_Order" style="ellipse;whiteSpace=wrap;html=1;" vertex="1" parent="1">
          <mxGeometry x="-200" y="525" width="108" height="58" as="geometry" />
        </mxCell>
        <mxCell id="OwGAfwipVpSHfUCCJN2n-5" value="1" style="text;html=1;align=center;verticalAlign=middle;resizable=0;points=[];autosize=1;strokeColor=none;fillColor=none;" vertex="1" parent="1">
          <mxGeometry x="411" y="1023" width="25" height="26" as="geometry" />
        </mxCell>
        <mxCell id="OwGAfwipVpSHfUCCJN2n-6" value="Take" style="rhombus;whiteSpace=wrap;html=1;" vertex="1" parent="1">
          <mxGeometry x="1003" y="950" width="80" height="80" as="geometry" />
        </mxCell>
        <mxCell id="OwGAfwipVpSHfUCCJN2n-9" value="1" style="text;html=1;align=center;verticalAlign=middle;resizable=0;points=[];autosize=1;strokeColor=none;fillColor=none;" vertex="1" parent="1">
          <mxGeometry x="1000.5" y="929" width="25" height="26" as="geometry" />
        </mxCell>
        <mxCell id="OwGAfwipVpSHfUCCJN2n-10" value="M" style="text;html=1;align=center;verticalAlign=middle;resizable=0;points=[];autosize=1;strokeColor=none;fillColor=none;" vertex="1" parent="1">
          <mxGeometry x="962" y="993" width="28" height="26" as="geometry" />
        </mxCell>
        <mxCell id="OwGAfwipVpSHfUCCJN2n-11" value="1" style="text;html=1;align=center;verticalAlign=middle;resizable=0;points=[];autosize=1;strokeColor=none;fillColor=none;" vertex="1" parent="1">
          <mxGeometry x="504" y="949" width="25" height="26" as="geometry" />
        </mxCell>
      </root>
    </mxGraphModel>
  </diagram>
</mxfile>
